HIERARCHY
ROOT hip
{
	OFFSET 0.000000 0.000000 0.000000 
	CHANNELS 6 Xposition Yposition Zposition Xrotation Zrotation Yrotation
	JOINT abdomen
	{
		OFFSET 0.000000 3.402643 0.000000 
		CHANNELS 3 Xrotation Zrotation Yrotation
		JOINT chest
		{
			OFFSET 0.000000 8.438565 -0.680529 
			CHANNELS 3 Xrotation Zrotation Yrotation
			JOINT neck
			{
				OFFSET 0.000000 10.207942 -0.272212 
				CHANNELS 3 Xrotation Zrotation Yrotation
				JOINT head
				{
					OFFSET 0.000000 3.130431 0.000000 
					CHANNELS 3 Xrotation Zrotation Yrotation
					End Site
					{
						OFFSET 0.000000 3.130435 0.000000 
					}
				}
			}
			JOINT lCollar
			{
				OFFSET 3.470700 6.669187 -0.816635 
				CHANNELS 3 Yrotation Zrotation Xrotation
				JOINT lShldr
				{
					OFFSET 3.198488 0.000000 0.000000 
					CHANNELS 3 Zrotation Yrotation Xrotation
					JOINT lForeArm
					{
						OFFSET 10.139888 0.000000 0.000000 
						CHANNELS 3 Yrotation Zrotation Xrotation
						JOINT lHand
						{
							OFFSET 8.370511 0.000000 0.000000 
							CHANNELS 3 Zrotation Yrotation Xrotation
							End Site
							{
								OFFSET 4.083176 0.000000 0.000000 
							}
						}
					}
				}
			}
			JOINT rCollar
			{
				OFFSET -3.470700 6.669187 -0.816635 
				CHANNELS 3 Yrotation Zrotation Xrotation
				JOINT rShldr
				{
					OFFSET -3.198488 0.000000 0.000000 
					CHANNELS 3 Zrotation Yrotation Xrotation
					JOINT rForeArm
					{
						OFFSET -10.139888 0.000000 0.000000 
						CHANNELS 3 Yrotation Zrotation Xrotation
						JOINT rHand
						{
							OFFSET -8.370511 0.000000 0.000000 
							CHANNELS 3 Zrotation Yrotation Xrotation
							End Site
							{
								OFFSET -4.083176 0.000000 0.000000 
							}
						}
					}
				}
			}
		}
	}
	JOINT lThigh
	{
		OFFSET 5.308129 -1.633274 1.361059 
		CHANNELS 3 Xrotation Zrotation Yrotation
		JOINT lShin
		{
			OFFSET -2.041588 -20.007561 0.000000 
			CHANNELS 3 Xrotation Zrotation Yrotation
			JOINT lFoot
			{
				OFFSET 0.000000 -19.190928 -1.224953 
				CHANNELS 3 Xrotation Yrotation Zrotation
				End Site
				{
					OFFSET 0.000000 -2.449906 4.627600 
				}
			}
		}
	}
	JOINT rThigh
	{
		OFFSET -5.308129 -1.633274 1.361059 
		CHANNELS 3 Xrotation Zrotation Yrotation
		JOINT rShin
		{
			OFFSET 2.041588 -20.007561 0.000000 
			CHANNELS 3 Xrotation Zrotation Yrotation
			JOINT rFoot
			{
				OFFSET 0.000000 -19.190928 -1.224953 
				CHANNELS 3 Xrotation Yrotation Zrotation
				End Site
				{
					OFFSET 0.000000 -2.449906 4.627600 
				}
			}
		}
	}
}
MOTION
Frames: 20
Frame Time: 0.016667
0.260590 43.012722 1.165070 -0.734076 3.847340 -7.021800 -21.116501 -0.839759 2.878530 17.439800 1.842970 1.198540 48.591202 -5.007080 2.038470 -8.603520 0.000000 0.000000 2.000000 -2.000000 0.000000 93.779800 176.264008 6.231990 22.949499 -0.340743 0.053369 5.377830 -1.427270 -134.557999 -2.000000 2.000000 0.000000 -90.761002 -173.636002 2.903700 -30.303101 0.332885 0.068992 5.706300 3.499420 -146.113007 7.551282 -6.447254 1.835833 0.768283 4.197391 -0.047617 -12.649508 14.356647 3.476562 2.244598 -5.950271 -4.045024 10.329119 -6.610506 -0.524399 -16.568089 -2.540862 0.125040 
0.267958 43.017262 1.171152 -0.851490 3.808170 -7.038850 -21.096399 -0.844503 2.921560 17.371401 1.813600 1.217500 48.553902 -5.016920 1.980390 -8.603520 0.000000 0.000000 2.000000 -2.000000 0.000000 93.828598 176.274994 5.899980 23.027599 -0.340670 0.053540 5.382940 -1.410500 -134.714996 -2.000000 2.000000 0.000000 -90.682899 -173.606995 2.620420 -30.244499 0.332955 0.068871 5.715180 3.476410 -145.947998 7.758564 -6.416856 1.843075 0.630804 4.199842 -0.076756 -12.459988 14.392672 3.422623 2.392152 -5.905923 -3.939865 10.287493 -6.620324 -0.514804 -16.551046 -2.596041 0.105939 
0.272351 43.008949 1.173066 -0.851265 3.573830 -7.054920 -21.065901 -0.829978 2.988210 17.391300 1.647870 1.256580 48.611198 -5.053560 1.693110 -8.603520 0.000000 0.000000 2.000000 -2.000000 0.000000 94.072899 176.292999 6.398070 23.086201 -0.340616 0.053669 5.387920 -1.389510 -134.988998 -2.000000 2.000000 0.000000 -90.497299 -173.636993 2.405650 -30.146799 0.333073 0.068670 5.731010 3.448600 -145.664993 7.822255 -6.158832 1.820553 0.611085 4.193132 -0.066842 -12.622600 14.366731 3.477288 2.470398 -5.658489 -3.956350 10.210773 -6.557561 -0.498836 -16.545286 -2.563290 0.112976 
0.276860 43.016090 1.172970 -0.870928 3.671450 -7.067380 -21.055799 -0.856272 3.029390 17.352100 1.686810 1.272800 48.605000 -4.954510 1.752300 -8.603520 0.000000 0.000000 2.000000 -2.000000 0.000000 94.131599 176.223999 6.847130 23.203400 -0.340506 0.053926 5.383660 -1.411220 -134.744003 -2.000000 2.000000 0.000000 -90.409401 -173.735001 2.181290 -30.068701 0.333166 0.068508 5.745190 3.433680 -145.498993 7.786686 -6.239645 2.049282 0.699893 4.199221 -0.057326 -12.401795 14.210104 3.385288 2.495164 -5.702244 -3.684105 10.186700 -6.595134 -0.501577 -16.641918 -2.807901 0.062922 
0.297460 43.020115 1.178157 -0.959063 3.729950 -7.073980 -21.026800 -0.869154 3.022850 17.332600 1.686780 1.272230 48.581600 -4.894750 1.832790 -8.603520 0.000000 0.000000 2.000000 -2.000000 0.000000 94.092400 176.272995 6.661690 23.076401 -0.340625 0.053647 5.372120 -1.443430 -134.382004 -2.000000 2.000000 0.000000 -90.468002 -173.675995 2.161610 -30.029600 0.333213 0.068428 5.735120 3.445760 -145.597000 7.872079 -6.357621 1.855673 0.670282 4.204061 -0.057320 -12.543481 14.296896 3.429874 2.470478 -5.736368 -3.588531 10.426592 -6.730357 -0.525394 -16.827995 -2.845553 0.125561 
0.302050 43.016747 1.170557 -0.939418 3.661620 -6.973940 -21.027700 -0.838433 2.937830 17.322701 1.755020 1.229020 48.536701 -4.821820 1.959510 -8.603520 0.000000 0.000000 2.000000 -2.000000 0.000000 94.043602 176.292999 6.661740 23.115499 -0.340588 0.053733 5.372950 -1.448280 -134.302994 -2.000000 2.000000 0.000000 -90.565697 -173.705002 2.317930 -30.039400 0.333201 0.068448 5.733610 3.458660 -145.712997 7.802852 -6.226768 2.097650 0.767744 4.197246 -0.057362 -12.436844 14.096089 3.365120 2.522768 -5.587826 -3.387897 10.298132 -6.730512 -0.522905 -16.739265 -3.310335 0.023425 
0.305450 43.014927 1.172144 -0.880685 3.642150 -7.028490 -21.056499 -0.779994 2.926790 17.293200 1.842710 1.232890 48.657600 -4.704740 2.066810 -8.603520 0.000000 0.000000 2.000000 -2.000000 0.000000 93.985001 176.263000 6.671440 23.086201 -0.340616 0.053669 5.374760 -1.454110 -134.264008 -2.000000 2.000000 0.000000 -90.614502 -173.714996 2.239830 -29.971001 0.333283 0.068307 5.731600 3.448190 -145.656006 7.804039 -6.209557 2.099916 0.669179 4.194114 -0.066903 -12.444016 14.054456 3.377918 2.460387 -5.666754 -3.592611 10.327971 -6.629795 -0.516129 -16.711891 -2.946510 0.039178 
0.307738 43.015575 1.175411 -0.900188 3.573780 -7.048200 -21.027000 -0.734740 2.908430 17.322500 1.881770 1.231630 48.674400 -4.829330 1.959680 -8.603520 0.000000 0.000000 2.000000 -2.000000 0.000000 93.985100 176.320999 6.905940 23.056900 -0.340643 0.053605 5.378700 -1.432180 -134.479996 -2.000000 2.000000 0.000000 -90.653603 -173.714996 2.269130 -30.000299 0.333248 0.068367 5.722670 3.459470 -145.733002 7.824241 -6.129600 2.166966 0.680045 4.202726 -0.047530 -12.446373 14.027705 3.363938 2.508778 -5.525189 -3.244209 10.300042 -6.600657 -0.513301 -16.785130 -3.303272 -0.062172 
0.316252 43.020115 1.173455 -0.821885 3.544560 -7.042910 -21.035900 -0.726627 2.957930 17.342100 1.842800 1.253990 48.857899 -4.886930 1.756570 -8.603520 0.000000 0.000000 2.000000 -2.000000 0.000000 94.033997 176.389999 7.013510 23.076401 -0.340625 0.053647 5.377580 -1.427030 -134.548004 -2.000000 2.000000 0.000000 -90.614502 -173.735001 2.259420 -30.078400 0.333154 0.068529 5.716370 3.475610 -145.927994 7.703160 -6.089047 2.256731 0.776835 4.195569 -0.057306 -12.429689 14.038092 3.377077 2.466132 -5.531902 -3.236218 10.133717 -6.514313 -0.494152 -16.743677 -3.240571 -0.081373 
0.320645 43.021679 1.178839 -0.910091 3.690940 -7.089720 -20.987400 -0.757930 2.957910 17.361500 1.901340 1.251360 48.826599 -5.028340 1.678470 -8.603520 0.000000 0.000000 2.000000 -2.000000 0.000000 93.994904 176.341003 6.915750 23.193600 -0.340515 0.053905 5.376690 -1.422100 -134.626007 -2.000000 2.000000 0.000000 -90.673103 -173.753998 2.396180 -30.058901 0.333178 0.068488 5.706170 3.487710 -146.026001 7.738560 -6.251983 2.358107 0.883414 4.204582 -0.047706 -12.510201 13.934351 3.369320 2.482867 -5.728458 -3.410901 10.284688 -6.606506 -0.514070 -16.712626 -3.073147 0.001797 
0.327651 43.019596 1.188077 -0.841553 3.651950 -7.094510 -21.035299 -0.731159 3.001520 17.361601 1.881840 1.271980 48.849400 -4.897920 1.733480 -8.603520 0.000000 0.000000 2.000000 -2.000000 0.000000 94.073097 176.330002 7.237990 23.164301 -0.340542 0.053840 5.388190 -1.393840 -134.880997 -2.000000 2.000000 0.000000 -90.575401 -173.667007 2.210410 -30.078400 0.333154 0.068529 5.722080 3.459880 -145.742996 7.685437 -6.231333 2.309168 0.845410 4.202437 -0.047708 -12.543014 13.915203 3.374109 2.422621 -5.700055 -3.380253 10.308702 -6.587036 -0.512614 -16.730780 -3.144582 -0.027609 
0.320994 43.008308 1.193287 -0.900122 3.505430 -7.135020 -21.025000 -0.678840 3.001890 17.341999 1.881800 1.281100 48.723400 -4.759780 1.889040 -8.603520 0.000000 0.000000 2.000000 -2.000000 0.000000 94.209900 176.192993 7.638080 23.369400 -0.340349 0.054290 5.398670 -1.356340 -135.350998 -2.000000 2.000000 0.000000 -90.555901 -173.638000 2.083390 -29.990601 0.333259 0.068347 5.731600 3.448190 -145.656006 7.793979 -6.059349 2.297753 0.777484 4.205378 -0.057466 -12.567740 13.963731 3.379649 2.516900 -5.554626 -3.217185 10.242925 -6.453955 -0.521007 -16.747734 -3.136724 -0.100768 
0.315255 43.014927 1.185541 -0.890413 3.583550 -7.096570 -21.015400 -0.715407 3.015630 17.332199 1.920780 1.278590 48.580399 -4.799630 1.800750 -8.603520 0.000000 0.000000 2.000000 -2.000000 0.000000 94.161003 176.251999 7.315940 23.379200 -0.340340 0.054311 5.391960 -1.367540 -135.233994 -2.000000 2.000000 0.000000 -90.555901 -173.666000 2.444790 -30.185900 0.333026 0.068750 5.707360 3.486910 -146.005997 7.722991 -6.117815 2.397773 0.922829 4.196092 -0.047701 -12.532694 13.797032 3.355314 2.418031 -5.584546 -3.172741 10.386353 -6.538886 -0.530212 -16.788830 -3.333927 -0.090835 
0.319719 43.015835 1.187174 -0.929552 3.583510 -7.118540 -21.005699 -0.691587 2.995710 17.322300 1.950020 1.276610 48.571301 -5.058270 1.741300 -8.603520 0.000000 0.000000 2.000000 -2.000000 0.000000 94.121902 176.173996 7.315770 23.447500 -0.340275 0.054461 5.400210 -1.361950 -135.292007 -2.000000 2.000000 0.000000 -90.555901 -173.656998 2.259220 -30.107700 0.333119 0.068589 5.716370 3.475610 -145.927994 7.815436 -6.146053 2.303440 0.816478 4.208164 -0.047758 -12.619891 13.936823 3.396358 2.508496 -5.580111 -3.189885 10.313450 -6.561986 -0.521239 -16.822489 -3.373695 -0.091744 
0.314476 43.012981 1.185509 -0.910051 3.651880 -7.089100 -21.006300 -0.744019 2.995040 17.322399 1.940270 1.267400 48.737400 -5.073610 1.771640 -8.603520 0.000000 0.000000 2.000000 -2.000000 0.000000 94.170700 176.134995 7.149670 23.525700 -0.340201 0.054632 5.397590 -1.351170 -135.429001 -2.000000 2.000000 0.000000 -90.516800 -173.598007 2.268830 -30.176100 0.333038 0.068730 5.721700 3.471970 -145.841003 7.737019 -6.190605 2.464395 0.873605 4.196403 -0.057390 -12.474162 13.829518 3.342072 2.387217 -5.693066 -3.360286 10.522770 -6.578703 -0.526048 -16.898205 -3.087987 -0.011923 
0.314001 43.007137 1.183758 -0.919719 3.534700 -7.068320 -20.996099 -0.704233 2.989910 17.322399 1.930520 1.267950 48.574200 -4.958190 1.875050 -8.603520 0.000000 0.000000 2.000000 -2.000000 0.000000 94.141403 176.173996 7.237650 23.545200 -0.340182 0.054675 5.402860 -1.334420 -135.615997 -2.000000 2.000000 0.000000 -90.565697 -173.666000 2.249480 -30.107700 0.333119 0.068589 5.718140 3.474400 -145.899002 7.755647 -6.048797 2.431622 0.874937 4.206356 -0.047807 -12.554761 13.819229 3.358381 2.448641 -5.563881 -3.396849 10.402758 -6.531127 -0.530308 -16.793571 -3.117959 -0.036491 
0.311472 43.009735 1.179322 -0.890509 3.681200 -7.019950 -21.035500 -0.725469 2.988870 17.283100 2.008440 1.262170 48.559799 -5.049670 1.808310 -8.603520 0.000000 0.000000 2.000000 -2.000000 0.000000 94.102303 176.106003 7.217960 23.603800 -0.340126 0.054803 5.409890 -1.327640 -135.625000 -2.000000 2.000000 0.000000 -90.634003 -173.617004 2.327480 -30.136999 0.333084 0.068649 5.718740 3.473990 -145.889008 7.713405 -6.211306 2.406306 0.825739 4.206103 -0.057497 -12.512362 13.805646 3.346160 2.317719 -5.693959 -3.440722 10.609556 -6.624007 -0.521498 -16.855602 -3.116325 0.006501 
0.294420 42.998829 1.172836 -0.831731 3.612900 -7.073800 -21.054600 -0.709295 3.004080 17.273399 1.998670 1.272160 48.556400 -5.193760 1.767450 -8.603520 0.000000 0.000000 2.000000 -2.000000 0.000000 94.131599 176.085999 7.217920 23.623301 -0.340108 0.054846 5.408950 -1.322600 -135.712997 -2.000000 2.000000 0.000000 -90.614502 -173.587997 2.317640 -30.088200 0.333143 0.068549 5.733020 3.459070 -145.723007 7.716118 -6.122052 2.367902 0.708261 4.197574 -0.067002 -12.380177 13.923816 3.333164 2.376496 -5.635822 -3.326098 10.352928 -6.499877 -0.527195 -16.710699 -3.195984 -0.077830 
0.295520 42.998829 1.176919 -0.763045 3.378610 -7.037080 -20.995800 -0.673456 2.988450 17.400700 1.862410 1.274340 48.389500 -5.013300 1.930630 -8.603520 0.000000 0.000000 2.000000 -2.000000 0.000000 94.141403 176.203995 7.149820 23.603800 -0.340126 0.054803 5.406880 -1.316450 -135.753006 -2.000000 2.000000 0.000000 -90.653603 -173.617004 2.493490 -30.215200 0.332991 0.068811 5.721110 3.472380 -145.850006 7.673929 -5.847593 2.449172 0.767372 4.197317 -0.057335 -12.347005 13.939322 3.337466 2.433076 -5.421385 -3.434725 10.142752 -6.355302 -0.512429 -16.541924 -3.169379 -0.145963 
0.293626 43.012329 1.172510 -0.861022 3.544520 -6.996490 -20.947500 -0.774291 3.025620 17.420300 1.813690 1.277640 48.457500 -5.210050 1.851680 -8.603520 0.000000 0.000000 2.000000 -2.000000 0.000000 94.043602 176.371002 6.408000 23.330299 -0.340386 0.054204 5.392770 -1.372420 -135.145996 -2.000000 2.000000 0.000000 -90.643799 -173.645996 2.669350 -30.224899 0.332979 0.068831 5.703790 3.489320 -146.065002 7.757234 -6.062009 2.321856 0.708062 4.197851 -0.057204 -12.344733 13.944859 3.329661 2.376510 -5.563325 -3.566265 10.467272 -6.558122 -0.542646 -16.752399 -3.065135 -0.016967 
